<?xml version="1.0" encoding="UTF-8" standalone="no"?>
<!-- Created with Inkscape (http://www.inkscape.org/) -->

<svg
   width="35mm"
   height="35mm"
   viewBox="0 0 35 35"
   version="1.1"
   id="svg875"
   xmlns="http://www.w3.org/2000/svg"
   xmlnsSvg="http://www.w3.org/2000/svg">
  <g
     id="layer1"
     transform="translate(-61.94851,-24.039316)">
    <path
       class="st4"
       d="m 94.488814,50.926036 c -0.574146,1.391708 -2.365375,3.889375 -3.669771,5.127624 -1.391708,1.304396 -3.294062,2.320396 -4.995332,2.696104 -2.076979,0.441854 -2.055812,0.441854 -1.415521,-1.148291 0.685271,-1.722438 1.304396,-5.392208 1.481667,-9.016999 l 0.153458,-2.76225 0.994833,-0.640291 c 1.722437,-1.082146 2.939521,-3.624792 3.249083,-6.807729 l 0.132292,-1.259416 h -0.619125 c -1.965854,0 -4.929187,1.280583 -6.783916,2.918354 L 81.802045,41.1391 v 4.442353 l -0.02117,4.463521 -1.105958,1.19327 -1.105958,1.193271 -1.214438,-1.193271 -1.214437,-1.19327 0.04498,-4.421187 0.02117,-4.421187 -1.172104,-1.060979 c -1.370542,-1.214438 -3.757083,-2.431521 -5.458354,-2.783417 -1.989666,-0.420687 -1.965854,-0.420687 -1.878541,1.016 0.22225,3.005667 1.547812,5.812895 3.249083,6.873874 0.949854,0.574146 0.973666,0.619125 1.105958,2.032 0.06615,0.796396 0.132292,2.032 0.132292,2.76225 0.02117,2.608791 0.928687,7.048499 1.70127,8.24177 0.177271,0.288395 0.264583,0.574145 0.198438,0.664104 -0.264584,0.264583 -3.116792,-0.441854 -4.418541,-1.105959 -1.923521,-0.973666 -4.421187,-3.558645 -5.590646,-5.812895 l -0.904874,-1.767416 0.441854,-0.552979 c 0.264583,-0.309563 0.706437,-1.082146 1.015999,-1.74625 0.529167,-1.172104 0.55298,-1.436687 0.706438,-7.183437 0.177271,-6.519332 0.243417,-6.940019 1.680104,-9.236603 0.928687,-1.502833 3.381374,-3.735916 5.347228,-4.905374 2.166938,-1.280583 5.193771,-2.563812 6.122458,-2.563812 0.375708,0 1.481666,0.330729 2.497666,0.751416 4.929187,2.010834 8.442853,5.037667 9.921874,8.575145 0.574146,1.349375 0.597958,1.568979 0.73025,7.358062 0.177271,6.564311 0.309562,7.336895 1.568979,8.64129 0.640291,0.664104 0.640291,0.687917 0.285749,1.526646 z"
       id="path14"
       style="fill:#000000;stroke-width:0.0264583;fill-opacity:1" />
  </g>
</svg>
